<?xml version="1.0" encoding="UTF-8"?>
<svg
    viewBox="0 0 100 100"
    fill="none"
    xmlns="http://www.w3.org/2000/svg"
>
    <!-- Background with gradient -->
    <defs>
        <linearGradient id="backgroundGradient" x1="0%" y1="0%" x2="100%" y2="100%">
            <stop offset="0%" stop-color="#94A3B8" />
            <stop offset="100%" stop-color="#64748B" />
        </linearGradient>
        <!-- Shadow for depth -->
        <filter id="shadow" x="-10%" y="-10%" width="120%" height="120%">
            <feDropShadow dx="0" dy="2" stdDeviation="2" flood-opacity="0.3" />
        </filter>
    </defs>
    
    <!-- Main circle with gradient -->
    <circle cx="50" cy="50" r="48" fill="url(#backgroundGradient)" filter="url(#shadow)" />
    
    <!-- Head with subtle shading -->
    <circle cx="50" cy="35" r="16" fill="#F8FAFC" />
    <circle cx="50" cy="35" r="14" fill="#FFFFFF" />
    
    <!-- Body with subtle curve and shadow -->
    <path
        d="M50 55C35 55 26 65 26 80C26 82 27 85 29 85H71C73 85 74 82 74 80C74 65 65 55 50 55Z"
        fill="#F8FAFC"
    />
    <path
        d="M50 58C37 58 30 67 30 80H70C70 67 63 58 50 58Z"
        fill="#FFFFFF"
    />
    
    <!-- Slight shadow under head -->
    <ellipse cx="50" cy="52" rx="12" ry="3" fill="#E2E8F0" opacity="0.5" />
    
    <!-- Subtle face suggestion (minimal) -->
    <path
        d="M45 40C45 40 48 44 55 40"
        stroke="#94A3B8"
        stroke-width="1.5"
        stroke-linecap="round"
        fill="none"
        opacity="0.6"
    />
</svg>